<svg width="75" height="75" viewBox="0 0 75 75" fill="none" xmlns="http://www.w3.org/2000/svg">
<path d="M73.6028 34.1966L40.8089 1.40701C38.9326 -0.469005 35.8327 -0.469005 33.9564 1.40701L27.1855 8.177L35.8327 16.823C37.8721 16.1705 40.1563 16.5783 41.7062 18.2096C43.3378 19.8409 43.7457 22.1248 43.093 24.1639L51.4139 32.4837C53.4533 31.8312 55.7375 32.239 57.369 33.8703C59.6532 36.0726 59.6532 39.7431 57.369 42.0269C55.0849 44.3108 51.4955 44.3108 49.2113 42.0269C47.4982 40.314 47.0903 37.8671 47.9877 35.7463L40.2379 27.9976V48.3891C40.8089 48.6338 41.2984 49.0416 41.7878 49.4494C44.072 51.6517 44.072 55.3222 41.7878 57.606C39.5037 59.8083 35.9143 59.8083 33.6301 57.606C31.346 55.3222 31.346 51.7333 33.6301 49.4494C34.2012 48.8785 34.8538 48.4706 35.5064 48.2259V27.5897C34.8538 27.345 34.2012 26.8556 33.6301 26.3662C31.917 24.6533 31.5091 22.2064 32.4065 20.0856L23.8409 11.6028L1.4072 34.0334C-0.469068 35.9095 -0.469068 39.009 1.4072 40.885L34.1196 73.593C35.9958 75.469 39.0958 75.469 40.972 73.593L73.5213 41.0481C75.4791 39.0905 75.4791 36.0726 73.6028 34.1966Z" fill="white"/>
</svg>
