<svg width="71" height="75" viewBox="0 0 71 75" fill="none" xmlns="http://www.w3.org/2000/svg">
<path d="M26.3893 68.6146C21.3253 67.1931 16.8717 64.5758 12.9832 60.9206C11.7624 61.3493 10.519 61.778 9.25303 62.1841C8.66524 62.3646 8.07745 62.2969 7.46706 62.0713C6.38191 61.6652 5.7263 60.8755 5.25155 59.9052C4.59594 58.6191 3.75947 57.4458 3.10386 56.1597C2.51608 54.9639 1.657 53.926 1.15964 52.685C0.910965 52.0758 0.255356 51.6697 0.255356 50.9025C-0.332432 49.9549 0.232749 49.12 0.571857 48.2852C0.662286 48.0596 0.775322 47.7662 0.978787 47.676C1.79265 47.315 2.19958 46.5027 2.87779 46.0063C3.19429 45.7807 3.5334 45.5325 3.89512 45.2617C3.37515 42.667 2.92301 40.0722 2.92301 37.4097C2.92301 34.7699 3.39776 32.2202 3.89512 29.6931C3.01344 28.8809 2.19958 28.0912 1.3405 27.3466C0.458821 26.5794 -0.0611452 25.6318 0.0518909 24.639C0.119713 24.0975 0.277963 23.5108 0.54925 23.0596C1.38572 21.7283 2.15436 20.3294 2.96822 18.9756C3.62383 17.8926 4.18901 16.7644 4.91244 15.704C5.29676 15.1625 5.52284 14.5307 5.90716 13.9666C6.6532 12.9061 8.14527 12.3872 9.36606 12.7482C10.4512 13.0641 11.4685 13.5379 12.5763 13.741C12.6893 13.7635 12.7798 13.9215 12.8928 14.0343C16.8038 10.4016 21.2575 7.80686 26.3667 6.29513C26.5702 5.68592 26.6154 5.03159 26.864 4.39982C27.0449 3.92599 26.9997 3.33935 27.0901 2.8204C27.3388 1.46661 28.1753 0.676895 29.3734 0.270758C29.803 0.135379 30.2325 0 30.7525 0C33.9175 0.0451264 37.0825 0.0451264 40.2475 0C41.1518 0 41.9204 0.361011 42.6439 0.767148C43.2995 1.1056 43.6612 1.82762 43.8421 2.50451C44.1586 3.74549 44.3394 5.00903 44.5881 6.31769C49.6747 7.76173 54.1283 10.3565 58.0168 14.0117C59.2376 13.583 60.481 13.1543 61.747 12.7482C62.3348 12.5677 62.9226 12.6354 63.5329 12.861C64.6181 13.2671 65.2737 14.0569 65.7485 15.0271C66.4041 16.3132 67.2405 17.4865 67.8961 18.7726C68.4839 19.9684 69.343 21.0063 69.8404 22.2473C70.089 22.8565 70.7446 23.2626 70.7446 24.0298C71.3324 24.9774 70.7673 25.8123 70.4281 26.6471C70.3377 26.8727 70.2247 27.1661 70.0212 27.2563C69.2074 27.6173 68.8004 28.4296 68.1222 28.926C67.8057 29.1516 67.4666 29.3998 67.1049 29.6706C67.6248 32.2653 68.077 34.8601 68.077 37.5226C68.077 40.1625 67.6701 42.7121 67.1049 45.2392C67.9866 46.0514 68.8004 46.8412 69.6595 47.5857C70.5412 48.3529 71.0611 49.3005 70.9481 50.2933C70.8803 50.8348 70.7447 51.4215 70.4508 51.8727C69.6369 53.1814 68.8682 54.5352 68.077 55.8664C67.0823 57.5135 66.2684 59.296 65.1155 60.8529C64.912 61.7103 64.0981 61.778 63.5103 62.0939C62.8773 62.4323 62.2443 62.3421 61.5435 62.139C60.5036 61.8457 59.5089 61.3267 58.4237 61.1913C58.3107 61.1688 58.2203 61.0108 58.1072 60.898C54.1962 64.5758 49.7652 67.1931 44.5881 68.6597C44.3394 69.8782 44.1133 71.1417 43.8421 72.3827C43.5708 73.6011 42.7569 74.3682 41.604 74.7292C41.1744 74.8646 40.7223 75 40.2249 75C37.0599 74.9549 33.8949 74.9549 30.7299 75C29.8256 75 29.0569 74.639 28.3335 74.2329C27.6779 73.8944 27.2936 73.1724 27.1579 72.4955C26.9093 71.1643 26.6606 69.9233 26.3893 68.6146ZM27.8588 48.7365C28.3109 48.4883 28.8309 48.3303 28.8535 47.7888C28.8987 46.9765 29.0117 46.1417 28.8309 45.3745C28.5144 44.0659 27.9492 42.8023 27.6101 41.4937C27.384 40.6588 26.8867 39.8691 26.9093 38.9666C26.1858 37.1841 25.7337 35.3114 25.1233 33.5063C24.6259 32.0171 24.2642 30.4829 23.7216 29.0162C23.4277 28.204 23.3599 27.3014 22.8174 26.5794C22.7721 26.5117 22.7495 26.4666 22.7495 26.4666C22.1391 26.0605 21.5061 26.1958 20.9636 26.1958C20.6471 26.4892 20.3758 26.7374 20.1271 26.963C20.1045 27.685 19.5845 28.2491 19.675 28.9486C18.8837 30.7085 18.5446 32.6038 17.889 34.4088C17.5499 35.3339 17.3464 36.2816 17.0751 37.2292C16.8264 38.1769 16.2839 39.0343 16.2839 40.0496C15.4248 41.9675 14.9953 44.0208 14.3623 46.0289C14.204 46.5253 14.1136 46.9991 14.4301 47.4729C14.5205 47.6083 14.4753 47.8114 14.4753 47.7888C14.837 48.1724 15.1083 48.4431 15.3344 48.7139C15.7639 48.7139 16.216 48.7139 16.6908 48.7139C17.0073 48.3078 17.3238 47.9242 17.6177 47.5406C17.5499 46.2545 17.8212 45.3971 18.4089 44.0208C20.6245 44.0208 22.84 44.0208 25.0555 44.0208C25.2363 44.7428 25.3268 45.4422 25.5754 46.0966C25.6885 46.3673 25.8015 46.6381 25.7563 46.9088C25.6885 47.7437 25.9598 48.398 26.9093 48.7139C27.1353 48.7365 27.4744 48.7365 27.8588 48.7365ZM33.1488 48.7365C33.7592 48.6913 34.4601 48.8718 34.9574 48.3755C35.1383 48.1498 35.2965 47.9242 35.5226 47.6083C35.5226 45.352 35.5226 42.9829 35.5226 40.6137C37.1729 40.6137 38.8007 40.546 40.4058 40.6363C41.3779 40.6814 42.1691 40.3881 42.9378 39.9143C43.2995 39.6886 43.616 39.3502 43.9325 39.0343C44.769 38.222 45.1759 37.2292 45.1985 36.056C45.1985 34.2058 45.1985 32.3782 45.1985 30.528C45.1985 30.2572 45.1307 29.9639 45.0629 29.6931C44.8142 28.7229 44.2942 28.0009 43.5934 27.3691C42.7795 26.6245 41.83 26.1733 40.6997 26.1733C38.1677 26.1733 35.6583 26.1733 33.1036 26.1733C32.855 26.444 32.6063 26.7148 32.3124 26.9856C32.3124 33.935 32.3124 40.9296 32.3124 47.9468C32.6063 48.1949 32.8776 48.4657 33.1488 48.7365ZM49.426 48.7365C50.9859 48.7365 52.5684 48.7365 54.1283 48.7365C54.3996 48.4657 54.6709 48.1949 54.9422 47.9468C54.9422 47.5181 54.9422 47.1119 54.9422 46.6832C54.9422 46.6381 54.9422 46.6155 54.9422 46.593C54.6031 45.9612 54.0831 45.5776 53.4049 45.5099C53.4049 40.1173 53.4049 34.7473 53.4049 29.4901C53.9023 29.2419 54.3318 29.0162 54.8292 28.7455C54.897 28.1588 54.9422 27.5496 54.9874 27.1209C54.6257 26.7148 54.377 26.4215 54.1736 26.1958C52.5458 26.1958 50.9633 26.1958 49.5617 26.1958C49.1774 26.5343 48.9061 26.7825 48.567 27.0984C48.6348 27.6399 48.7252 28.2491 48.793 28.7681C49.3356 29.0388 49.7652 29.2644 50.1495 29.4675C50.1495 34.8375 50.1495 40.2076 50.1495 45.5325C49.9234 45.5776 49.6747 45.5325 49.5843 45.6453C49.2678 45.9612 48.7252 46.0514 48.6122 46.5704C48.6122 47.0217 48.6122 47.4729 48.6122 47.9242C48.8835 48.1949 49.1548 48.4657 49.426 48.7365Z" fill="white"/>
<path d="M23.8574 40.5679C22.5235 40.613 21.1219 40.6356 19.7202 40.6807C19.675 40.6807 19.6072 40.7709 19.4716 40.8838C19.4942 39.4848 20.2854 38.3567 20.3758 37.0706C21.0541 35.9424 21.1219 34.6112 21.574 33.3477C21.7097 33.483 21.9131 33.6184 21.9131 33.7312C21.9357 34.7014 22.5009 35.5363 22.6818 36.4614C22.8174 37.0931 23.1791 37.7024 23.2696 38.3341C23.36 39.1464 23.9026 39.7556 23.8574 40.5679Z" fill="white"/>
<path d="M42.0562 36.1915C41.8979 36.4397 41.7623 36.6879 41.5814 36.9135C41.2649 37.2745 40.858 37.4776 40.338 37.455C38.7555 37.4325 37.173 37.455 35.5453 37.455C35.5453 34.77 35.5453 32.085 35.5453 29.3323C37.1956 29.3323 38.8912 29.3097 40.5641 29.3323C41.3553 29.3549 42.0336 30.1671 42.0562 31.0245C42.0562 32.446 42.0562 33.8675 42.0562 35.289C42.0562 35.6049 42.0562 35.8982 42.0562 36.1915Z" fill="white"/>
</svg>
