<svg width="75" height="75" viewBox="0 0 75 75" fill="none" xmlns="http://www.w3.org/2000/svg">
<path d="M74.9317 5.96862C74.3855 3.10368 72.1666 0.784447 69.3332 0.170532C69.1966 0.136426 69.0601 0.136426 68.8894 0.102319C68.8553 0.102319 68.8211 0.0341064 68.787 0H6.17888C6.14474 0.0341064 6.11061 0.102319 6.04233 0.102319C3.20892 0.579809 0.819299 2.83083 0.170687 5.69577C0.13655 5.79809 0.0682749 5.93452 0 6.07094V68.7926C0.0341375 68.8608 0.102412 68.895 0.102412 68.9632C0.785162 72.101 2.69686 74.045 5.80337 74.8295C5.90578 74.8636 5.97406 74.9318 6.04233 75H68.8894C68.9577 74.9659 68.9918 74.8977 69.0601 74.8636C72.1666 74.1473 74.0783 72.2715 74.8634 69.1678C74.8976 69.0655 74.8634 68.9291 74.8976 68.8267C74.8976 68.7926 74.9659 68.7585 75 68.7244V6.17326C75 6.10505 74.9317 6.07094 74.9317 5.96862ZM43.5253 41.5757H43.1497C40.3163 41.5757 37.4488 41.5757 34.6154 41.5757C34.4788 41.5757 34.3423 41.5757 34.2057 41.5757C34.2057 41.6098 34.1716 41.6098 34.1716 41.6439C34.1716 41.7804 34.1716 41.9168 34.1716 42.0532V68.3493H26.6955V41.6098H17.3077V35.6412H43.4911V41.5757H43.5253ZM68.7187 59.4134C68.6504 60.573 68.4797 61.6985 68.0018 62.7899C67.8653 63.131 67.7629 63.4379 67.5922 63.779C66.9777 65.075 65.9536 65.9959 64.7588 66.7462C63.3933 67.5989 61.8912 68.0764 60.3209 68.3834C58.5799 68.7244 56.8389 68.8267 55.0637 68.7585C54.2103 68.7244 53.3569 68.7244 52.5034 68.6221C50.4893 68.3834 48.5093 67.94 46.6659 67.0532C46.5635 67.0191 46.4269 66.8486 46.4269 66.7462C46.4269 64.5293 46.4269 62.3124 46.4269 60.0955C46.4269 60.0614 46.4269 60.0273 46.4269 59.9591C46.9731 60.3342 47.5193 60.7094 48.0655 61.0164C49.3969 61.8008 50.8648 62.3465 52.3669 62.6876C53.6641 62.9945 54.9613 63.0287 56.2585 62.9604C57.2485 62.9263 58.2385 62.6876 59.1261 62.2442C59.9112 61.8349 60.5599 61.2892 60.7305 60.3684C60.9012 59.5498 60.833 58.7312 60.355 58.015C59.6723 56.9918 58.7164 56.3438 57.6582 55.7981C56.4634 55.2183 55.2686 54.7067 54.0396 54.161C52.2303 53.3424 50.4552 52.4557 48.9873 51.0914C47.7924 49.9659 46.9049 48.6357 46.4952 47.0327C46.2563 46.0778 46.188 45.1228 46.2221 44.1678C46.2563 41.8145 47.1097 39.8022 48.7824 38.131C50.1479 36.7667 51.8207 35.9482 53.6641 35.4707C54.9272 35.1637 56.1903 34.925 57.4875 34.8909C58.4092 34.8909 59.3309 34.7885 60.2185 34.8226C61.6181 34.8568 62.9836 34.925 64.3491 35.266C65.2367 35.5048 66.1584 35.7435 67.046 35.9482C67.2167 35.9823 67.2849 36.0846 67.2849 36.2892C67.2849 38.4038 67.2849 40.5525 67.2849 42.6671C67.2849 42.7353 67.2849 42.8035 67.2508 42.9059C66.9777 42.7353 66.7387 42.5989 66.4998 42.4625C65.4074 41.8486 64.2467 41.4393 63.0519 41.1323C61.7205 40.8254 60.3892 40.6207 59.0237 40.6548C58.102 40.6889 57.1461 40.8254 56.2927 41.1323C55.2344 41.5075 54.381 42.1214 54.0055 43.2469C53.6982 44.1337 53.9372 44.884 54.4834 45.6003C55.1661 46.487 56.0878 47.101 57.0778 47.5784C58.4092 48.2265 59.7747 48.7722 61.0719 49.3861C62.574 50.1023 64.076 50.8186 65.3391 51.8759C66.4315 52.7967 67.4215 53.8199 67.9677 55.1842C68.2749 56.0027 68.548 56.8554 68.548 57.7763C68.6846 58.322 68.7528 58.8677 68.7187 59.4134Z" fill="white"/>
</svg>
