<svg width="75" height="75" viewBox="0 0 75 75" fill="none" xmlns="http://www.w3.org/2000/svg">
<path d="M0 0C25.0169 0 49.9831 0 75 0C75 25.0169 75 50.0338 75 75C50.0338 75 25.0169 75 0 75C0 49.9325 0 24.9662 0 0ZM67.0999 39.7029C65.5807 36.9683 63.5044 35.0945 60.5165 34.4362C58.3896 33.9298 56.2627 33.9298 54.1357 34.3856C47.2485 35.8035 44.3113 44.1087 48.7677 49.6286C50.3376 51.553 52.4139 52.7178 54.5915 53.7306C56.5159 54.6421 58.4909 55.503 60.4153 56.4652C61.7319 57.1236 62.289 58.339 62.1371 59.8076C61.9851 61.2762 60.9723 62.0864 59.7063 62.5422C56.8704 63.555 53.5787 62.6435 51.6543 60.2633C51.2492 59.7569 50.844 59.1999 50.4389 58.6428C48.5145 59.7569 46.6408 60.8204 44.767 61.9345C45.9318 64.2134 47.5523 66.0365 49.7806 67.2519C53.5787 69.3282 57.5793 69.632 61.6813 68.6192C64.3653 67.9608 66.6442 66.5935 68.0621 64.1121C70.6955 59.4024 69.1762 53.528 64.5172 50.6415C62.4409 49.3754 60.1114 48.5145 57.9338 47.4004C56.8704 46.8433 55.7562 46.3369 54.8447 45.628C53.2242 44.3113 53.528 41.6779 55.3511 40.6651C57.1236 39.6523 59.605 40.26 60.9723 42.0324C61.2762 42.3869 61.4787 42.792 61.7826 43.1972C63.5044 42.0324 65.2768 40.8677 67.0999 39.7029ZM19.7502 62.6941C20.763 64.8717 22.2316 66.5935 24.3079 67.7076C26.9919 69.1762 29.9291 69.4294 32.917 68.9737C35.6009 68.5685 37.8292 67.3531 39.2978 64.9223C40.5132 62.8967 40.8677 60.6685 40.8677 58.2883C40.8677 50.5908 40.8677 42.8933 40.8677 35.1958C40.8677 34.9932 40.8677 34.74 40.8677 34.4868C38.4875 34.4868 36.2086 34.4868 33.8285 34.4868C33.8285 34.7907 33.8285 35.0439 33.8285 35.3477C33.8285 42.944 33.8285 50.4895 33.8285 58.0858C33.8285 58.7947 33.7779 59.5544 33.6766 60.2633C33.474 61.4281 32.8663 62.289 31.7016 62.6435C29.524 63.3018 27.7515 62.6435 26.4855 60.7698C26.1816 60.2633 25.8778 59.7569 25.5233 59.2505C23.5483 60.4153 21.6745 61.5294 19.7502 62.6941Z" fill="white"/>
</svg>
