<svg width="80" height="75" viewBox="0 0 80 75" fill="none" xmlns="http://www.w3.org/2000/svg">
<path fill-rule="evenodd" clip-rule="evenodd" d="M78.3013 19.7049L71.2114 29.6354L64.1215 19.7049H67.9871C67.6924 12.3264 61.6079 6.42361 54.1713 6.42361C47.8961 6.42361 42.5743 10.6424 40.8929 16.3889C38.8474 15.7292 36.7325 15.3125 34.583 15.1215C34.8257 14.2014 35.1377 13.2812 35.5191 12.3958C36.5418 9.98264 37.998 7.8125 39.8528 5.95486C41.7076 4.09722 43.8744 2.62153 46.284 1.61458C48.7802 0.538194 51.4324 0 54.1713 0C56.9102 0 59.5624 0.538194 62.0586 1.59722C64.4682 2.62153 66.635 4.07986 68.4898 5.9375C70.3447 7.79514 71.8008 9.96528 72.8235 12.3785C73.8116 14.7049 74.349 17.1701 74.401 19.7049H78.3013Z" fill="white"/>
<path fill-rule="evenodd" clip-rule="evenodd" d="M68.3859 75.0001V70.7293H43.9438C44.1172 70.6425 44.2905 70.573 44.4639 70.4862C47.1161 69.2189 49.5603 67.5696 51.7445 65.5557C52.0392 65.2779 52.3165 65.0175 52.5766 64.7571C52.8713 64.4619 53.1833 64.1494 53.478 63.8196C53.8247 63.4376 54.1714 63.0383 54.4834 62.639H68.3859V58.3682L80.0002 66.6841L68.3859 75.0001Z" fill="white"/>
<path fill-rule="evenodd" clip-rule="evenodd" d="M59.3716 44.1495C59.3716 47.8474 58.6435 51.4412 57.2221 54.8266C56.0087 57.7085 54.3099 60.3474 52.195 62.6565C51.9177 62.9516 51.6403 63.2467 51.3629 63.5419C51.1029 63.8023 50.8429 64.0454 50.5829 64.3058C48.5374 66.1981 46.2492 67.7433 43.753 68.9412C43.4063 69.1148 43.0422 69.2711 42.6782 69.4273C42.6609 69.4273 42.6609 69.4447 42.6435 69.4447C40.5634 70.3301 38.3272 70.7641 36.0563 70.7641H0V62.6912H33.4735C43.597 62.6912 51.9003 54.5836 52.039 44.4447C52.039 44.3579 52.039 44.2711 52.039 44.1842C52.039 33.1079 43.0596 24.1148 32 24.1148C20.9404 24.0801 11.961 33.0558 11.961 44.1495H16.6067L8.30336 55.7815L0 44.1495H4.64572C4.64572 40.4516 5.37378 36.8579 6.79523 33.4724C8.18201 30.2086 10.1408 27.2745 12.6544 24.7572C15.1679 22.2398 18.0975 20.2606 21.3564 18.8891C24.7367 17.4655 28.325 16.7363 32.0173 16.7363C32.7627 16.7363 33.4908 16.7711 34.2188 16.8231C36.3684 16.9967 38.4659 17.4134 40.5114 18.0905C41.2394 18.3335 41.9502 18.594 42.6609 18.9065C45.9198 20.2954 48.8494 22.2572 51.3629 24.7745C53.8765 27.2919 55.8526 30.2259 57.2221 33.4898C58.6435 36.8579 59.3716 40.4516 59.3716 44.1495Z" fill="white"/>
</svg>
