<svg width="30" height="30" viewBox="0 0 30 30" fill="none" xmlns="http://www.w3.org/2000/svg">
<g clip-path="url(#clip0_382_3281)">
<path d="M15 0C6.7 0 0 6.7 0 15C0 23.3 6.7 30 15 30C23.3 30 30 23.3 30 15C30 6.7 23.3 0 15 0ZM6.7 5.5C7.1 5.2 7.6 5 8 5C8.4 5 9 5.2 9.3 5.5C9.6 5.9 9.8 6.3 9.8 6.8C9.8 7.3 9.6 7.8 9.2 8.1C9 8.5 8.5 8.7 8 8.7C7.5 8.7 7 8.5 6.7 8.2C6.4 7.8 6.2 7.3 6.2 6.8C6.2 6.3 6.4 5.9 6.7 5.5ZM9.9 21.6H6.2V10.1H9.9V21.6ZM23.8 21.6H20.1V15.5C20.1 11.8 15.7 12.1 15.7 15.5V21.6H12.1V10.1H15.8V11.6C17.3 8.8 23.9 8.6 23.9 14.3V21.6H23.8Z" fill="white"/>
</g>
<defs>
<clipPath id="clip0_382_3281">
<rect width="30" height="30" fill="white"/>
</clipPath>
</defs>
</svg>
