<svg width="30" height="30" viewBox="0 0 30 30" fill="none" xmlns="http://www.w3.org/2000/svg">
<path d="M15 0.370117C6.7125 0.370117 2.18932e-06 7.08262 2.18932e-06 15.3701C-0.00169914 18.519 0.988222 21.5885 2.82933 24.1431C4.67043 26.6977 7.26922 28.6077 10.257 29.6021C11.007 29.7326 11.2875 29.2826 11.2875 28.8881C11.2875 28.5326 11.268 27.3521 11.268 26.0951C7.5 26.7896 6.525 25.1771 6.225 24.3326C6.0555 23.9006 5.325 22.5701 4.6875 22.2131C4.1625 21.9326 3.4125 21.2381 4.668 21.2201C5.85 21.2006 6.693 22.3076 6.975 22.7576C8.325 25.0256 10.482 24.3881 11.343 23.9951C11.475 23.0201 11.868 22.3646 12.3 21.9896C8.9625 21.6146 5.475 20.3201 5.475 14.5826C5.475 12.9506 6.0555 11.6021 7.0125 10.5506C6.8625 10.1756 6.3375 8.63812 7.1625 6.57562C7.1625 6.57562 8.418 6.18262 11.2875 8.11462C12.5086 7.77571 13.7703 7.60513 15.0375 7.60762C16.3125 7.60762 17.5875 7.77562 18.7875 8.11312C21.6555 6.16312 22.9125 6.57712 22.9125 6.57712C23.7375 8.63962 23.2125 10.1771 23.0625 10.5521C24.018 11.6021 24.6 12.9326 24.6 14.5826C24.6 20.3396 21.0945 21.6146 17.757 21.9896C18.3 22.4576 18.7695 23.3576 18.7695 24.7646C18.7695 26.7701 18.75 28.3826 18.75 28.8896C18.75 29.2826 19.032 29.7506 19.782 29.6006C22.7595 28.5953 25.3469 26.6816 27.1799 24.1288C29.0128 21.5761 29.9991 18.5128 30 15.3701C30 7.08262 23.2875 0.370117 15 0.370117Z" fill="white"/>
</svg>
